<svg width="99" height="46" viewBox="0 0 99 46" fill="none" xmlns="http://www.w3.org/2000/svg">
<path d="M96.7668 36.1353H0.489014V37.4615H96.7668V36.1353Z" fill="white"/>
<path d="M3.85325 1.43704V0.291992H5.67688V1.43704H8.65588V2.66127H7.09076C7.12066 2.68715 7.16638 2.72674 7.2121 2.75263C7.51458 3.01605 7.77309 3.30536 7.9718 3.63426C8.15469 3.97686 8.24614 4.34534 8.24614 4.72601C8.24614 5.10668 8.15469 5.47517 7.9718 5.80559C7.77484 6.14819 7.51633 6.44968 7.2121 6.70092C6.89204 6.96282 6.52802 7.16076 6.11652 7.30542C5.69095 7.46377 5.23548 7.53077 4.76418 7.53077C4.29289 7.53077 3.83742 7.4653 3.42592 7.30542C3.00035 7.16229 2.6205 6.96434 2.31802 6.70092C1.99797 6.4512 1.75528 6.14819 1.57415 5.80559C1.37543 5.47517 1.28399 5.12038 1.28399 4.72601C1.28399 4.33164 1.37543 3.97533 1.57415 3.63426C1.75528 3.30536 1.99797 3.01605 2.31802 2.75263C2.34792 2.72674 2.39364 2.68715 2.43936 2.66127H0.814453V1.43704H3.85501H3.85325ZM6.61947 4.66054C6.61947 4.24028 6.43658 3.85809 6.07255 3.5429C5.70853 3.23988 5.26538 3.08305 4.76594 3.08305C4.26651 3.08305 3.82335 3.23988 3.45933 3.5429C3.09531 3.85809 2.91242 4.24028 2.91242 4.66054C2.91242 5.08079 3.09531 5.46298 3.45933 5.76752C3.82335 6.08119 4.24893 6.23955 4.76594 6.23955C5.28296 6.23955 5.70853 6.08119 6.07255 5.76752C6.43658 5.46451 6.61947 5.09602 6.61947 4.66054ZM12.1519 11.9663H3.3204V8.4124H5.05259V10.6888H12.1501V11.9663H12.1519ZM10.0539 4.03015H8.51871V2.70086H10.0539V0.477758H11.6947V9.0169H10.0539V6.76639H8.51871V5.4371H10.0539V4.02863V4.03015Z" fill="white"/>
<path d="M13.1226 9.03087V0.991168H17.5453V2.28087H14.7492V7.74269H15.8589C16.8912 7.74269 17.9551 7.67569 19.019 7.51886V0.478027H20.6V4.31973H22.0437V0.478027H23.6563V11.9666H22.0437V5.60943H20.6V11.9666H19.019V8.80704C18.0782 8.9654 16.9984 9.03087 15.8114 9.03087H13.1226Z" fill="white"/>
<path d="M27.8804 3.42413V2.92469H24.9014V1.63499H27.8804V0.291992H29.5528V1.63499H32.3489V2.92469H29.5528V3.42413C29.5528 4.37123 29.8254 5.26656 30.3424 6.11012C30.8278 6.92627 31.6349 7.72872 32.7587 8.53117L31.7106 9.46457C30.5411 8.62253 29.6144 7.68761 28.9443 6.68721C28.8529 6.58367 28.7773 6.46338 28.7175 6.34613C28.6419 6.4649 28.5662 6.58367 28.4889 6.70244C27.7432 7.78201 26.8024 8.71541 25.647 9.50568L24.4758 8.62405C25.5714 7.87337 26.4366 7.03134 27.075 6.09794C27.592 5.32138 27.8646 4.42605 27.8804 3.42565V3.42413ZM35.145 0.477758V4.47782H37.1515V5.82081H35.145V11.9678H33.5043V0.477758H35.145Z" fill="white"/>
<path d="M6.36951 21.7094C5.05235 23.2564 3.45558 24.4365 1.55105 25.2283L0 23.7452C1.45609 23.1559 2.74863 22.2789 3.90225 21.0988C4.60743 20.3862 4.96091 19.4695 4.96091 18.3306V17.6393H0.823007V15.6857H11.8949V17.6393H7.54599V18.2712C7.54599 19.3904 7.96981 20.3268 8.86316 21.0592C9.92005 21.9545 11.1423 22.6656 12.5051 23.1559L11.2829 24.6801C9.35555 24.1289 7.70954 23.1346 6.36951 21.7094ZM16.6888 29.3623C16.6888 29.9333 16.5481 30.5028 16.2649 31.0312C15.959 31.5398 15.5598 31.9889 15.0902 32.3955C14.5732 32.7625 14.0087 33.067 13.351 33.3121C12.6933 33.5345 11.9881 33.6578 11.2355 33.6578C10.4828 33.6578 9.77937 33.5345 9.11991 33.3121C8.4622 33.0685 7.87484 32.764 7.38069 32.3955C6.88653 31.9889 6.5102 31.5398 6.22883 31.0312C5.92284 30.5028 5.78215 29.9349 5.78215 29.3623C5.78215 28.7898 5.9246 28.2234 6.22883 27.6935C6.51196 27.1849 6.88653 26.7372 7.38069 26.3307C7.87484 25.9637 8.4622 25.6577 9.11991 25.4156C9.77937 25.1917 10.4828 25.0684 11.2355 25.0684C11.9881 25.0684 12.6933 25.1917 13.351 25.4156C14.0105 25.6577 14.5732 25.9653 15.0902 26.3307C15.5598 26.7372 15.9607 27.1849 16.2649 27.6935C16.5481 28.2234 16.6888 28.7929 16.6888 29.3623ZM14.1512 29.3623C14.1512 28.7106 13.868 28.1625 13.3053 27.6935C12.7162 27.2458 12.0356 27.0022 11.2355 27.0022C10.4353 27.0022 9.75475 27.2473 9.19201 27.6935C8.60289 28.1625 8.32152 28.7106 8.32152 29.3623C8.32152 30.014 8.60289 30.5637 9.19201 31.0312C9.75651 31.4788 10.4371 31.724 11.2355 31.724C12.0338 31.724 12.7162 31.4788 13.3053 31.0312C13.868 30.5637 14.1512 30.0156 14.1512 29.3623ZM17.088 14.9746V25.21H14.5486V21.079H10.8591V19.1467H14.5486V14.9761H17.088V14.9746Z" fill="white"/>
<path d="M21.1522 15.4419H34.9271V22.3396H29.3102V24.2323H37.1833V26.1661H31.9903C32.4615 26.5528 32.859 27.0005 33.1421 27.5106C33.4235 28.0588 33.587 28.6298 33.587 29.2388C33.587 29.8479 33.4235 30.4189 33.1421 30.9686C32.8361 31.4985 32.4387 31.9461 31.9428 32.3527C31.4258 32.741 30.8366 33.0653 30.1789 33.3104C29.5001 33.5328 28.7932 33.6561 28.0405 33.6561C27.2879 33.6561 26.5598 33.5328 25.9004 33.3104C25.2198 33.0668 24.6307 32.741 24.1383 32.3527C23.6213 31.9461 23.2221 31.4985 22.9407 30.9686C22.6347 30.4189 22.494 29.8494 22.494 29.2388C22.494 28.6282 22.6347 28.0588 22.9407 27.5106C23.2221 27.0005 23.5984 26.5528 24.0908 26.1661H18.896V24.2323H26.7708V22.3396H21.1522V15.4419ZM32.3894 17.3346H23.6934V20.4484H32.3894V17.3346ZM31.0494 29.1779C31.0494 28.4866 30.7434 27.876 30.1789 27.3675C29.5687 26.8787 28.8635 26.6137 28.0405 26.6137C27.2175 26.6137 26.4895 26.8787 25.9267 27.3675C25.3147 27.876 25.0334 28.4866 25.0334 29.1779C25.0334 29.8692 25.3147 30.4813 25.9267 30.9899C26.4912 31.4787 27.1947 31.7421 28.0405 31.7421C28.8864 31.7421 29.5687 31.4771 30.1789 30.9899C30.7434 30.4813 31.0494 29.8692 31.0494 29.1779Z" fill="white"/>
<path d="M50.1575 24.0722C50.6042 21.7729 50.8381 19.8376 50.8381 18.2906V17.7439H39.6044V15.769H53.3774V18.0074C53.3774 20.1239 53.0714 22.1597 52.4841 24.0737H55.9168V26.0471H47.8995V33.0681H45.3601V26.0471H37.626V24.0737H50.1557L50.1575 24.0722Z" fill="white"/>
<path d="M65.271 19.7558V17.7215H61.7451V15.7679H70.7964V17.7215H67.74V19.7558C67.74 21.6302 68.0917 23.1148 68.8444 24.234C69.6199 25.4552 70.6082 26.4525 71.8058 27.2275L70.3005 28.5903C68.7969 27.6128 67.5976 26.3916 66.7042 24.9268C66.6339 24.8446 66.5864 24.7425 66.5389 24.6421L66.3033 25.0075C65.1285 26.8195 63.9274 28.1031 62.7087 28.8355L60.9678 27.5336C62.2357 26.6779 63.2944 25.5587 64.1648 24.1746C64.8946 22.993 65.2692 21.5084 65.2692 19.7573L65.271 19.7558ZM76.7175 22.7494H74.7918V32.7427H72.3457V14.9746H74.7918V20.7547H76.7175V14.9746H79.2093V32.7427H76.7175V22.7494Z" fill="white"/>
<path d="M81.395 24.9876V15.6856H90.8192V17.6803H83.9326V23.0143H87.2932C89.3631 23.0143 91.4786 22.8909 93.6399 22.6275V14.9761H96.1793V19.6568H99V21.6911H96.1793V27.9782H93.6399V24.5796C91.5243 24.8643 89.3859 24.9876 87.2229 24.9876H81.395ZM96.7684 32.7426H83.4631V27.0417H86.0482V30.7677H96.7684V32.7426Z" fill="white"/>
<path d="M0.560791 42.2364C0.560791 41.5451 0.798197 40.9939 1.27653 40.5813C1.7531 40.1687 2.41256 39.9494 3.25667 39.9205C3.70158 39.9037 4.12891 39.922 4.53866 39.9829V40.4915C4.13419 40.429 3.74555 40.4092 3.36746 40.4306C2.69744 40.4534 2.19274 40.6163 1.85685 40.9209C1.47524 41.2604 1.28356 41.7081 1.28356 42.2623V42.3354C1.28356 42.9003 1.48052 43.3343 1.86916 43.6434C2.25956 43.951 2.76427 44.1215 3.38328 44.1535C3.81061 44.1763 4.20629 44.1596 4.56152 44.1048V44.6149C4.19574 44.6697 3.76841 44.6849 3.28129 44.6621C2.42663 44.627 1.75837 44.4078 1.28004 44.0058C0.799956 43.6053 0.560791 43.0526 0.560791 42.3491V42.2334V42.2364Z" fill="white"/>
<path d="M5.19482 39.9146H5.90177V41.7737C6.23238 41.4098 6.63685 41.2286 7.11342 41.2286C7.51789 41.2286 7.85553 41.3352 8.12811 41.5453C8.40068 41.7555 8.53609 42.0996 8.53609 42.5762V44.5709H7.82739V42.4879C7.82739 41.9945 7.53019 41.7478 6.93228 41.7478C6.53837 41.7478 6.19545 41.9763 5.90177 42.4346V44.5709H5.19482V39.9161V39.9146Z" fill="white"/>
<path d="M9.38525 43.3595V41.3237H10.0922V43.4189C10.0922 43.9229 10.4175 44.1742 11.0682 44.1742C11.7189 44.1742 12.0336 43.9229 12.0336 43.4189V41.3237H12.7406V43.3656C12.7406 43.8057 12.5858 44.1376 12.2763 44.3599C11.9686 44.5822 11.5588 44.6919 11.0506 44.6919C10.5424 44.6919 10.1239 44.5899 9.83017 44.3813C9.53473 44.1727 9.38525 43.8316 9.38525 43.3611V43.3595Z" fill="white"/>
<path d="M13.4282 42.547C13.4282 42.1176 13.583 41.7902 13.8854 41.5679C14.1879 41.3441 14.5977 41.2329 15.1112 41.2329C15.6247 41.2329 16.0256 41.3517 16.3299 41.5907C16.6341 41.8268 16.7853 42.1435 16.7853 42.5394V44.5676H16.0766V42.5394C16.0766 42.0171 15.7548 41.7567 15.1112 41.7567C14.4675 41.7567 14.1369 42.0156 14.1369 42.5394V44.5676H13.4282V42.5455V42.547Z" fill="white"/>
<path d="M20.1831 44.3647V44.1348C19.842 44.4195 19.4604 44.5627 19.0365 44.5627C18.5688 44.5627 18.1854 44.4256 17.8794 44.1485C17.5453 43.8348 17.3765 43.4237 17.3765 42.9151C17.3765 42.4066 17.5453 42.0168 17.8794 41.6711C18.1678 41.3757 18.5529 41.228 19.0365 41.228C19.5202 41.228 19.907 41.3833 20.2464 41.6909V41.324H20.8901V44.1698C20.8901 44.8185 20.7283 45.2646 20.403 45.5098C20.0635 45.7717 19.587 45.9102 18.9732 45.9239C18.56 45.9331 18.1801 45.9057 17.8354 45.8417V45.3438C18.1537 45.4139 18.5213 45.4458 18.9363 45.4458C19.3513 45.4458 19.6608 45.3575 19.8736 45.1763C20.0811 44.9966 20.1866 44.7271 20.1866 44.3632L20.1831 44.3647ZM19.2019 44.045C19.5588 44.045 19.8859 43.8775 20.1831 43.541V42.201C19.8912 41.8934 19.5624 41.7366 19.2019 41.7366C18.8607 41.7366 18.5916 41.8538 18.3912 42.0868C18.1924 42.3213 18.0922 42.6 18.0922 42.9197C18.0922 43.2395 18.1924 43.5044 18.3876 43.7206C18.5846 43.9353 18.8554 44.0434 19.2019 44.0434V44.045Z" fill="white"/>
<path d="M26.5314 44.5694H26.0531L24.284 40.6759V44.5694H23.6245V40.0029H24.5513L26.2975 43.7045L28.0262 40.0029H28.9635V44.5694H28.2935V40.6759L26.5332 44.5694H26.5314Z" fill="white"/>
<path d="M33.592 42.9559C33.592 43.4568 33.3986 43.8649 33.0117 44.1877C32.6248 44.509 32.1518 44.6704 31.5961 44.6704C31.0404 44.6704 30.5954 44.5105 30.1963 44.1893C29.7988 43.8695 29.6001 43.4584 29.6001 42.9544C29.6001 42.4504 29.7953 42.0301 30.1839 41.7088C30.5761 41.386 31.0456 41.2246 31.5961 41.2246C32.1465 41.2246 32.6231 41.3906 33.0117 41.7164C33.3986 42.0423 33.592 42.4564 33.592 42.9544V42.9559ZM30.2982 42.9559C30.2982 43.3122 30.4213 43.6061 30.664 43.8253C30.9067 44.0476 31.218 44.1588 31.5961 44.1588C31.9742 44.1588 32.2907 44.0461 32.5316 43.8253C32.7708 43.6061 32.8921 43.3122 32.8921 42.9559C32.8921 42.5996 32.7708 42.2981 32.5316 42.0743C32.2907 41.8504 31.9777 41.7377 31.5961 41.7377C31.2145 41.7377 30.9085 41.8504 30.664 42.0743C30.4196 42.2996 30.2982 42.592 30.2982 42.9559Z" fill="white"/>
<path d="M34.1934 42.547C34.1934 42.1176 34.3464 41.7902 34.6506 41.5679C34.9531 41.3441 35.3628 41.2329 35.8763 41.2329C36.3898 41.2329 36.7925 41.3517 37.0932 41.5907C37.3992 41.8268 37.5505 42.1435 37.5505 42.5394V44.5676H36.8435V42.5394C36.8435 42.0171 36.5217 41.7567 35.8763 41.7567C35.2309 41.7567 34.9021 42.0156 34.9021 42.5394V44.5676H34.1951V42.5455L34.1934 42.547Z" fill="white"/>
<path d="M40.948 44.3647V44.1348C40.6069 44.4195 40.2235 44.5627 39.7997 44.5627C39.3337 44.5627 38.9485 44.4256 38.6443 44.1485C38.3084 43.8348 38.1414 43.4237 38.1414 42.9151C38.1414 42.4066 38.3102 42.0168 38.6443 41.6711C38.931 41.3757 39.3178 41.228 39.7997 41.228C40.2815 41.228 40.6702 41.3833 41.0096 41.6909V41.324H41.6532V44.1698C41.6532 44.8185 41.4897 45.2646 41.1661 45.5098C40.8232 45.7717 40.3466 45.9102 39.7364 45.9239C39.3214 45.9331 38.9415 45.9057 38.5968 45.8417V45.3438C38.9151 45.4139 39.2827 45.4458 39.6959 45.4458C40.1092 45.4458 40.424 45.3575 40.6315 45.1763C40.8408 44.9966 40.9463 44.7271 40.9463 44.3632L40.948 44.3647ZM39.965 44.045C40.322 44.045 40.6491 43.8775 40.948 43.541V42.201C40.6543 41.8934 40.3273 41.7366 39.965 41.7366C39.6256 41.7366 39.3565 41.8538 39.156 42.0868C38.9573 42.3213 38.8589 42.6 38.8589 42.9197C38.8589 43.2395 38.9556 43.5044 39.1525 43.7206C39.3495 43.9353 39.6203 44.0434 39.9667 44.0434L39.965 44.045Z" fill="white"/>
<path d="M42.3743 42.0103H45.2689V42.5545H42.3743V42.0103Z" fill="white"/>
<path d="M46.7301 40.0045V42.1408L49.0339 40.0045H49.8744L47.4371 42.2885L50.0239 44.5694H49.1992L46.7301 42.4453V44.5694H46.0232V40.0029H46.7301V40.0045Z" fill="white"/>
<path d="M53.9966 42.9559C53.9966 43.4568 53.8049 43.8649 53.4145 44.1877C53.0258 44.509 52.5546 44.6704 52.0006 44.6704C51.4467 44.6704 51 44.5105 50.6008 44.1893C50.2051 43.8695 50.0046 43.4584 50.0046 42.9544C50.0046 42.4504 50.1998 42.0301 50.5902 41.7088C50.9789 41.386 51.4502 41.2246 52.0006 41.2246C52.551 41.2246 53.0276 41.3906 53.4145 41.7164C53.8049 42.0423 53.9966 42.4564 53.9966 42.9544V42.9559ZM50.7028 42.9559C50.7028 43.3122 50.8241 43.6061 51.0668 43.8253C51.3113 44.0476 51.6225 44.1588 51.9988 44.1588C52.3752 44.1588 52.6935 44.0461 52.9344 43.8253C53.1736 43.6061 53.2949 43.3122 53.2949 42.9559C53.2949 42.5996 53.1736 42.2981 52.9344 42.0743C52.6935 41.8504 52.3822 41.7377 51.9988 41.7377C51.6155 41.7377 51.3113 41.8504 51.0668 42.0743C50.8224 42.2996 50.7028 42.592 50.7028 42.9559Z" fill="white"/>
<path d="M58.3384 42.9559C58.3384 43.4568 58.145 43.8649 57.7563 44.1877C57.3677 44.509 56.8964 44.6704 56.3407 44.6704C55.785 44.6704 55.3401 44.5105 54.9409 44.1893C54.5434 43.8695 54.3447 43.4584 54.3447 42.9544C54.3447 42.4504 54.5399 42.0301 54.9321 41.7088C55.3207 41.386 55.7903 41.2246 56.3425 41.2246C56.8946 41.2246 57.3695 41.3906 57.7581 41.7164C58.1467 42.0423 58.3402 42.4564 58.3402 42.9544L58.3384 42.9559ZM55.0429 42.9559C55.0429 43.3122 55.166 43.6061 55.4104 43.8253C55.6531 44.0476 55.9644 44.1588 56.3425 44.1588C56.7205 44.1588 57.0371 44.0461 57.2763 43.8253C57.5189 43.6061 57.6368 43.3122 57.6368 42.9559C57.6368 42.5996 57.5172 42.2981 57.2763 42.0743C57.0371 41.8504 56.7241 41.7377 56.3425 41.7377C55.9608 41.7377 55.6549 41.8504 55.4104 42.0743C55.1677 42.2996 55.0429 42.592 55.0429 42.9559Z" fill="white"/>
<path d="M61.527 44.5694H60.8201V40.0029H64.0277V40.5191H61.527V41.9839H63.7287V42.494H61.527V44.5694Z" fill="white"/>
<path d="M68.1637 42.9559C68.1637 43.4568 67.9702 43.8649 67.5816 44.1877C67.1947 44.509 66.7216 44.6704 66.1659 44.6704C65.6102 44.6704 65.1653 44.5105 64.7661 44.1893C64.3687 43.8695 64.1682 43.4584 64.1682 42.9544C64.1682 42.4504 64.3634 42.0301 64.7538 41.7088C65.1425 41.386 65.6137 41.2246 66.1642 41.2246C66.7146 41.2246 67.1929 41.3906 67.5798 41.7164C67.9667 42.0423 68.1619 42.4564 68.1619 42.9544L68.1637 42.9559ZM64.8699 42.9559C64.8699 43.3122 64.9912 43.6061 65.2374 43.8253C65.4801 44.0476 65.7914 44.1588 66.1677 44.1588C66.544 44.1588 66.8623 44.0461 67.1015 43.8253C67.3424 43.6061 67.4638 43.3122 67.4638 42.9559C67.4638 42.5996 67.3424 42.2981 67.1015 42.0743C66.8623 41.8504 66.5511 41.7377 66.1677 41.7377C65.7843 41.7377 65.4801 41.8504 65.2374 42.0743C64.9912 42.2996 64.8699 42.592 64.8699 42.9559Z" fill="white"/>
<path d="M68.7649 43.3595V41.3237H69.4719V43.4189C69.4719 43.9229 69.7955 44.1742 70.4461 44.1742C71.0968 44.1742 71.4116 43.9229 71.4116 43.4189V41.3237H72.1185V43.3656C72.1185 43.8057 71.9638 44.1376 71.656 44.3599C71.3465 44.5822 70.9385 44.6919 70.4285 44.6919C69.9186 44.6919 69.5035 44.5899 69.2081 44.3813C68.9109 44.1727 68.7632 43.8316 68.7632 43.3611L68.7649 43.3595Z" fill="white"/>
<path d="M72.8062 42.547C72.8062 42.1176 72.9591 41.7902 73.2634 41.5679C73.5658 41.3441 73.9756 41.2329 74.4891 41.2329C75.0026 41.2329 75.4035 41.3517 75.706 41.5907C76.012 41.8268 76.1632 42.1435 76.1632 42.5394V44.5676H75.4563V42.5394C75.4563 42.0171 75.1327 41.7567 74.4891 41.7567C73.8455 41.7567 73.5149 42.0156 73.5149 42.5394V44.5676H72.8062V42.5455V42.547Z" fill="white"/>
<path d="M78.4142 44.6592C77.9323 44.6592 77.5349 44.5069 77.2236 44.2054C76.9124 43.904 76.7559 43.4867 76.7559 42.9508C76.7559 42.4148 76.9159 41.9884 77.2342 41.6839C77.5542 41.3824 77.9482 41.2271 78.4142 41.2271C78.8398 41.2271 79.2231 41.3596 79.5696 41.623V39.9146H80.2783V44.5694H79.6329V44.2085C79.297 44.5085 78.8908 44.6592 78.4159 44.6592H78.4142ZM78.5707 41.7463C78.2102 41.7463 77.9341 41.8575 77.7459 42.0813C77.556 42.3067 77.4628 42.596 77.4628 42.9492C77.4628 43.3025 77.5578 43.5827 77.7459 43.8019C77.9288 44.0212 78.1979 44.1369 78.5549 44.14H78.5707H78.5461H78.5549C78.947 44.14 79.2864 43.9725 79.5696 43.636V42.2138C79.2442 41.9001 78.9154 41.7448 78.5795 41.7448H78.5725L78.5707 41.7463Z" fill="white"/>
<path d="M83.4857 44.1888C83.0619 44.5009 82.6134 44.6578 82.1421 44.6578C81.7447 44.6578 81.4334 44.5558 81.2101 44.3517C80.9868 44.1477 80.876 43.8949 80.876 43.5965C80.876 43.298 81.0149 43.0239 81.2928 42.8199C81.5495 42.6326 81.8872 42.5352 82.3074 42.5276C82.7207 42.5184 83.0935 42.5611 83.4241 42.657V42.5138C83.4241 42.0251 83.0847 41.7662 82.4094 41.7388C82.0208 41.7266 81.6673 41.754 81.349 41.821V41.3246C81.699 41.2668 82.0771 41.2363 82.4815 41.2363C82.9687 41.2363 83.3626 41.346 83.6668 41.5622C83.971 41.7906 84.1276 42.121 84.1311 42.555V44.5695H83.4874V44.1888H83.4857ZM83.4241 43.126C83.199 43.0757 83.0074 43.0407 82.8491 43.0209C82.6943 42.9996 82.5361 42.995 82.3778 43.0026C82.1527 43.0118 81.9733 43.059 81.8449 43.1397C81.6761 43.2432 81.59 43.3924 81.5847 43.5889C81.5847 43.7838 81.648 43.9315 81.7728 44.0274C81.8995 44.1264 82.056 44.1705 82.2441 44.1599C82.6961 44.1416 83.0883 43.9878 83.4241 43.6985V43.1244V43.126Z" fill="white"/>
<path d="M85.9005 43.6236C85.9005 43.8261 85.9532 43.9647 86.0605 44.0377C86.1818 44.12 86.3225 44.1596 86.4913 44.1596H87.0488V44.6575H86.3893C85.9866 44.6575 85.6894 44.5752 85.4995 44.4123C85.3078 44.2433 85.2094 43.9875 85.2094 43.6434V41.8055H84.469V41.3228H85.2094V40.4442L85.9005 40.2539V41.3228H86.8677V41.8055H85.9005V43.6221V43.6236Z" fill="white"/>
<path d="M87.4148 40.5541V39.9146H88.1715V40.5541H87.4148ZM87.4394 44.5694V41.323H88.1469V44.5694H87.4394Z" fill="white"/>
<path d="M92.7379 42.9559C92.7379 43.4568 92.5427 43.8649 92.1558 44.1877C91.7672 44.509 91.2976 44.6704 90.7402 44.6704C90.1827 44.6704 89.7395 44.5105 89.3421 44.1893C88.9447 43.8695 88.7424 43.4584 88.7424 42.9544C88.7424 42.4504 88.9394 42.0301 89.3298 41.7088C89.7202 41.386 90.1915 41.2246 90.7402 41.2246C91.2888 41.2246 91.7672 41.3906 92.1558 41.7164C92.5409 42.0423 92.7379 42.4564 92.7379 42.9544V42.9559ZM89.4441 42.9559C89.4441 43.3122 89.5654 43.6061 89.8099 43.8253C90.0543 44.0476 90.3638 44.1588 90.7402 44.1588C91.1165 44.1588 91.4348 44.0461 91.6775 43.8253C91.9184 43.6061 92.038 43.3122 92.038 42.9559C92.038 42.5996 91.9184 42.2981 91.6775 42.0743C91.4348 41.8504 91.1253 41.7377 90.7402 41.7377C90.355 41.7377 90.0543 41.8504 89.8099 42.0743C89.5654 42.2996 89.4441 42.592 89.4441 42.9559Z" fill="white"/>
<path d="M93.3394 42.547C93.3394 42.1176 93.4906 41.7902 93.7948 41.5679C94.1008 41.3441 94.5088 41.2329 95.0205 41.2329C95.5323 41.2329 95.935 41.3517 96.241 41.5907C96.5435 41.8268 96.6964 42.1435 96.6964 42.5394V44.5676H95.9878V42.5394C95.9878 42.0171 95.6659 41.7567 95.0205 41.7567C94.3751 41.7567 94.0481 42.0156 94.0481 42.5394V44.5676H93.3394V42.5455V42.547Z" fill="white"/>
</svg>
