<svg width="26" height="26" viewBox="0 0 26 26" fill="none" xmlns="http://www.w3.org/2000/svg">
<g clip-path="url(#clip0_68_672)">
<mask id="mask0_68_672" style="mask-type:luminance" maskUnits="userSpaceOnUse" x="0" y="0" width="26" height="26">
<path d="M26 0H0V26H26V0Z" fill="white"/>
</mask>
<g mask="url(#mask0_68_672)">
<path d="M13 24C19.0751 24 24 19.0751 24 13C24 6.92487 19.0751 2 13 2C6.92487 2 2 6.92487 2 13C2 19.0751 6.92487 24 13 24Z" stroke="white" stroke-width="2" stroke-miterlimit="10"/>
<path d="M2 13.25H24.5" stroke="white" stroke-width="2" stroke-miterlimit="10"/>
<path d="M4 6C5.318 6.748 7.142 8 13.022 8C18.902 8 20.45 6.786 22 6" stroke="white" stroke-width="2" stroke-miterlimit="10"/>
<path d="M22 20C20.7 19.288 18.765 18 12.972 18C7.179 18 5.526 19.22 4 19.967" stroke="white" stroke-width="2" stroke-miterlimit="10"/>
<path d="M18 13C18 19.075 15.761 24 13 24C10.239 24 8 19.075 8 13C8 6.925 10.239 2 13 2C15.761 2 18 6.925 18 13Z" stroke="white" stroke-width="2" stroke-miterlimit="10"/>
</g>
</g>
<defs>
<clipPath id="clip0_68_672">
<rect width="26" height="26" fill="white"/>
</clipPath>
</defs>
</svg>
