<svg width="99" height="51" viewBox="0 0 99 51" fill="none" xmlns="http://www.w3.org/2000/svg">
<path d="M96.7667 40.2168H0.488892V41.6708H96.7667V40.2168Z" fill="#004282"/>
<path d="M3.85325 2.17624V0.920898H5.67688V2.17624H8.65588V3.51838H7.09076C7.12066 3.54676 7.16638 3.59016 7.2121 3.61854C7.51458 3.90733 7.77309 4.22451 7.9718 4.58508C8.15469 4.96068 8.24614 5.36466 8.24614 5.78199C8.24614 6.19933 8.15469 6.6033 7.9718 6.96555C7.77484 7.34115 7.51633 7.67168 7.2121 7.94712C6.89204 8.23424 6.52802 8.45125 6.11652 8.60984C5.69095 8.78345 5.23548 8.8569 4.76418 8.8569C4.29289 8.8569 3.83742 8.78512 3.42592 8.60984C3.00035 8.45292 2.6205 8.23591 2.31802 7.94712C1.99797 7.67335 1.75528 7.34115 1.57415 6.96555C1.37543 6.6033 1.28399 6.21435 1.28399 5.78199C1.28399 5.34964 1.37543 4.95901 1.57415 4.58508C1.75528 4.22451 1.99797 3.90733 2.31802 3.61854C2.34792 3.59016 2.39364 3.54676 2.43936 3.51838H0.814453V2.17624H3.85501H3.85325ZM6.61947 5.71021C6.61947 5.24948 6.43658 4.83047 6.07255 4.48492C5.70853 4.15272 5.26538 3.98078 4.76594 3.98078C4.26651 3.98078 3.82335 4.15272 3.45933 4.48492C3.09531 4.83047 2.91242 5.24948 2.91242 5.71021C2.91242 6.17095 3.09531 6.58995 3.45933 6.92382C3.82335 7.2677 4.24893 7.44131 4.76594 7.44131C5.28296 7.44131 5.70853 7.2677 6.07255 6.92382C6.43658 6.59162 6.61947 6.18764 6.61947 5.71021ZM12.1519 13.7197H3.3204V9.82345H5.05259V12.3191H12.1501V13.7197H12.1519ZM10.0539 5.01911H8.51871V3.56178H10.0539V1.12456H11.6947V10.4862H10.0539V8.0189H8.51871V6.56157H10.0539V5.01744V5.01911Z" fill="#ABADB0"/>
<path d="M13.1226 10.5011V1.68708H17.5453V3.101H14.7492V9.08889H15.8589C16.8912 9.08889 17.9551 9.01544 19.019 8.8435V1.12451H20.6V5.33624H22.0437V1.12451H23.6563V13.7196H22.0437V6.75016H20.6V13.7196H19.019V10.2558C18.0782 10.4294 16.9984 10.5011 15.8114 10.5011H13.1226Z" fill="#ABADB0"/>
<path d="M27.8803 4.35471V3.80717H24.9013V2.39325H27.8803V0.920898H29.5527V2.39325H32.3488V3.80717H29.5527V4.35471C29.5527 5.39304 29.8253 6.37461 30.3423 7.29942C30.8276 8.19418 31.6348 9.07392 32.7585 9.95365L31.7104 10.977C30.541 10.0538 29.6142 9.02884 28.9442 7.93209C28.8528 7.81858 28.7772 7.6867 28.7174 7.55816C28.6417 7.68837 28.5661 7.81858 28.4887 7.94879C27.7431 9.13234 26.8023 10.1556 25.6469 11.022L24.4757 10.0555C25.5713 9.2325 26.4365 8.30936 27.0749 7.28606C27.5919 6.4347 27.8645 5.45314 27.8803 4.35638V4.35471ZM35.1449 1.12456V5.50989H37.1514V6.98224H35.1449V13.7213H33.5042V1.12456H35.1449Z" fill="#ABADB0"/>
<path d="M6.36951 24.401C5.05235 26.0971 3.45558 27.3908 1.55105 28.2589L0 26.6329C1.45609 25.9869 2.74863 25.0254 3.90225 23.7316C4.60743 22.9504 4.96091 21.9454 4.96091 20.6968V19.9389H0.823007V17.7972H11.8949V19.9389H7.54599V20.6317C7.54599 21.8586 7.96981 22.8853 8.86316 23.6882C9.92005 24.6698 11.1423 25.4494 12.5051 25.9869L11.2829 27.6579C9.35555 27.0536 7.70954 25.9635 6.36951 24.401ZM16.6888 32.7911C16.6888 33.4171 16.5481 34.0414 16.2649 34.6207C15.959 35.1782 15.5598 35.6707 15.0902 36.1164C14.5732 36.5187 14.0087 36.8526 13.351 37.1213C12.6933 37.3651 11.9881 37.5003 11.2355 37.5003C10.4828 37.5003 9.77937 37.3651 9.11991 37.1213C8.4622 36.8542 7.87484 36.5204 7.38069 36.1164C6.88653 35.6707 6.5102 35.1782 6.22883 34.6207C5.92284 34.0414 5.78215 33.4188 5.78215 32.7911C5.78215 32.1634 5.9246 31.5424 6.22883 30.9615C6.51196 30.404 6.88653 29.9132 7.38069 29.4675C7.87484 29.0651 8.4622 28.7296 9.11991 28.4642C9.77937 28.2188 10.4828 28.0836 11.2355 28.0836C11.9881 28.0836 12.6933 28.2188 13.351 28.4642C14.0105 28.7296 14.5732 29.0668 15.0902 29.4675C15.5598 29.9132 15.9607 30.404 16.2649 30.9615C16.5481 31.5424 16.6888 32.1668 16.6888 32.7911ZM14.1512 32.7911C14.1512 32.0766 13.868 31.4757 13.3053 30.9615C12.7162 30.4707 12.0356 30.2036 11.2355 30.2036C10.4353 30.2036 9.75475 30.4724 9.19201 30.9615C8.60289 31.4757 8.32152 32.0766 8.32152 32.7911C8.32152 33.5056 8.60289 34.1082 9.19201 34.6207C9.75651 35.1115 10.4371 35.3802 11.2355 35.3802C12.0338 35.3802 12.7162 35.1115 13.3053 34.6207C13.868 34.1082 14.1512 33.5072 14.1512 32.7911ZM17.088 17.0176V28.2388H14.5486V23.7099H10.8591V21.5915H14.5486V17.0192H17.088V17.0176Z" fill="#004282"/>
<path d="M21.1522 17.5303H34.9271V25.0923H29.3102V27.1673H37.1833V29.2874H31.9903C32.4615 29.7114 32.859 30.2022 33.1421 30.7614C33.4235 31.3624 33.587 31.9884 33.587 32.6561C33.587 33.3238 33.4235 33.9498 33.1421 34.5525C32.8361 35.1334 32.4387 35.6242 31.9428 36.0699C31.4258 36.4956 30.8366 36.8511 30.1789 37.1199C29.5001 37.3636 28.7932 37.4988 28.0405 37.4988C27.2879 37.4988 26.5598 37.3636 25.9004 37.1199C25.2198 36.8528 24.6307 36.4956 24.1383 36.0699C23.6213 35.6242 23.2221 35.1334 22.9407 34.5525C22.6347 33.9498 22.494 33.3255 22.494 32.6561C22.494 31.9867 22.6347 31.3624 22.9407 30.7614C23.2221 30.2022 23.5984 29.7114 24.0908 29.2874H18.896V27.1673H26.7708V25.0923H21.1522V17.5303ZM32.3894 19.6053H23.6934V23.019H32.3894V19.6053ZM31.0494 32.5893C31.0494 31.8314 30.7434 31.162 30.1789 30.6045C29.5687 30.0686 28.8635 29.7782 28.0405 29.7782C27.2175 29.7782 26.4895 30.0686 25.9267 30.6045C25.3147 31.162 25.0334 31.8314 25.0334 32.5893C25.0334 33.3472 25.3147 34.0183 25.9267 34.5758C26.4912 35.1117 27.1947 35.4005 28.0405 35.4005C28.8864 35.4005 29.5687 35.11 30.1789 34.5758C30.7434 34.0183 31.0494 33.3472 31.0494 32.5893Z" fill="#004282"/>
<path d="M50.1575 26.991C50.6042 24.4704 50.8381 22.3486 50.8381 20.6526V20.0533H39.6044V17.8882H53.3774V20.3421C53.3774 22.6625 53.0714 24.8944 52.4841 26.9927H55.9168V29.1562H47.8995V36.8535H45.3601V29.1562H37.626V26.9927H50.1557L50.1575 26.991Z" fill="#004282"/>
<path d="M65.2709 22.2593V20.0291H61.7449V17.8873H70.7963V20.0291H67.7399V22.2593C67.7399 24.3142 68.0916 25.9418 68.8443 27.1688C69.6198 28.5076 70.6081 29.601 71.8057 30.4507L70.3003 31.9447C68.7968 30.873 67.5974 29.5342 66.7041 27.9283C66.6337 27.8382 66.5863 27.7263 66.5388 27.6162L66.3031 28.0168C65.1284 30.0033 63.9273 31.4106 62.7086 32.2135L60.9677 30.7862C62.2356 29.8481 63.2942 28.6211 64.1647 27.1037C64.8945 25.8083 65.2691 24.1807 65.2691 22.2609L65.2709 22.2593ZM76.7173 25.5412H74.7917V36.497H72.3456V17.0176H74.7917V23.3544H76.7173V17.0176H79.2092V36.497H76.7173V25.5412Z" fill="#004282"/>
<path d="M81.395 27.9954V17.7974H90.8192V19.9843H83.9326V25.8319H87.2932C89.3631 25.8319 91.4786 25.6967 93.6399 25.4079V17.0195H96.1793V22.1511H99V24.3813H96.1793V31.274H93.6399V27.548C91.5243 27.8602 89.3859 27.9954 87.2229 27.9954H81.395ZM96.7684 36.4973H83.4631V30.2473H86.0482V34.3322H96.7684V36.4973Z" fill="#004282"/>
<path d="M0.561035 46.9054C0.561035 46.1475 0.798441 45.5432 1.27677 45.0908C1.75334 44.6384 2.4128 44.3981 3.25691 44.3663C3.70183 44.348 4.12916 44.368 4.5389 44.4348V44.9923C4.13443 44.9239 3.74579 44.9022 3.3677 44.9256C2.69769 44.9506 2.19298 45.1292 1.8571 45.4631C1.47549 45.8354 1.2838 46.3261 1.2838 46.9338V47.0139C1.2838 47.6332 1.48076 48.109 1.86941 48.4479C2.25981 48.7851 2.76451 48.972 3.38353 49.0071C3.81086 49.0321 4.20654 49.0138 4.56177 48.9537V49.5129C4.19598 49.573 3.76865 49.5897 3.28153 49.5646C2.42687 49.5262 1.75862 49.2859 1.28029 48.8452C0.8002 48.4061 0.561035 47.8002 0.561035 47.0289V46.9021V46.9054Z" fill="#004282"/>
<path d="M5.19495 44.3599H5.90189V46.3981C6.2325 45.9992 6.63697 45.8005 7.11354 45.8005C7.51801 45.8005 7.85565 45.9174 8.12823 46.1477C8.40081 46.3781 8.53622 46.7554 8.53622 47.2779V49.4647H7.82751V47.181C7.82751 46.6402 7.53032 46.3697 6.93241 46.3697C6.53849 46.3697 6.19557 46.6201 5.90189 47.1226V49.4647H5.19495V44.3615V44.3599Z" fill="#004282"/>
<path d="M9.38525 48.1367V45.9048H10.0922V48.2018C10.0922 48.7543 10.4175 49.0298 11.0682 49.0298C11.7189 49.0298 12.0336 48.7543 12.0336 48.2018V45.9048H12.7406V48.1434C12.7406 48.6258 12.5858 48.9897 12.2763 49.2334C11.9686 49.4772 11.5588 49.5973 11.0506 49.5973C10.5424 49.5973 10.1239 49.4855 9.83017 49.2568C9.53473 49.0281 9.38525 48.6542 9.38525 48.1384V48.1367Z" fill="#004282"/>
<path d="M13.4283 47.2458C13.4283 46.7751 13.5831 46.4162 13.8856 46.1724C14.188 45.927 14.5978 45.8052 15.1113 45.8052C15.6248 45.8052 16.0257 45.9354 16.33 46.1975C16.6342 46.4562 16.7854 46.8034 16.7854 47.2375V49.461H16.0767V47.2375C16.0767 46.6649 15.7549 46.3794 15.1113 46.3794C14.4677 46.3794 14.137 46.6632 14.137 47.2375V49.461H13.4283V47.2441V47.2458Z" fill="#004282"/>
<path d="M20.1833 49.2386V48.9866C19.8421 49.2987 19.4605 49.4556 19.0367 49.4556C18.5689 49.4556 18.1855 49.3054 17.8795 49.0016C17.5454 48.6577 17.3766 48.207 17.3766 47.6494C17.3766 47.0919 17.5454 46.6645 17.8795 46.2856C18.1679 45.9617 18.5531 45.7998 19.0367 45.7998C19.5203 45.7998 19.9072 45.9701 20.2466 46.3073V45.905H20.8902V49.025C20.8902 49.7361 20.7284 50.2252 20.4031 50.494C20.0637 50.7811 19.5871 50.933 18.9734 50.948C18.5601 50.958 18.1803 50.928 17.8356 50.8579V50.312C18.1539 50.3888 18.5214 50.4239 18.9364 50.4239C19.3515 50.4239 19.661 50.327 19.8737 50.1284C20.0813 49.9314 20.1868 49.6359 20.1868 49.237L20.1833 49.2386ZM19.202 48.8881C19.559 48.8881 19.8861 48.7044 20.1833 48.3355V46.8665C19.8913 46.5293 19.5625 46.3574 19.202 46.3574C18.8608 46.3574 18.5918 46.4859 18.3913 46.7413C18.1926 46.9984 18.0923 47.3039 18.0923 47.6544C18.0923 48.005 18.1926 48.2955 18.3878 48.5325C18.5847 48.7679 18.8555 48.8864 19.202 48.8864V48.8881Z" fill="#004282"/>
<path d="M26.5315 49.4629H26.0532L24.2841 45.1944V49.4629H23.6246V44.4565H24.5514L26.2976 48.5147L28.0263 44.4565H28.9636V49.4629H28.2936V45.1944L26.5333 49.4629H26.5315Z" fill="#004282"/>
<path d="M33.592 47.6944C33.592 48.2436 33.3986 48.691 33.0117 49.0449C32.6248 49.3971 32.1518 49.5741 31.5961 49.5741C31.0404 49.5741 30.5954 49.3988 30.1963 49.0466C29.7988 48.696 29.6001 48.2453 29.6001 47.6927C29.6001 47.1402 29.7953 46.6795 30.1839 46.3272C30.5761 45.9733 31.0456 45.7964 31.5961 45.7964C32.1465 45.7964 32.6231 45.9783 33.0117 46.3356C33.3986 46.6928 33.592 47.1469 33.592 47.6927V47.6944ZM30.2982 47.6944C30.2982 48.085 30.4213 48.4072 30.664 48.6476C30.9067 48.8913 31.218 49.0132 31.5961 49.0132C31.9742 49.0132 32.2907 48.8897 32.5316 48.6476C32.7708 48.4072 32.8921 48.085 32.8921 47.6944C32.8921 47.3038 32.7708 46.9733 32.5316 46.7279C32.2907 46.4825 31.9777 46.359 31.5961 46.359C31.2145 46.359 30.9085 46.4825 30.664 46.7279C30.4196 46.9749 30.2982 47.2954 30.2982 47.6944Z" fill="#004282"/>
<path d="M34.1936 47.2458C34.1936 46.7751 34.3466 46.4162 34.6508 46.1724C34.9533 45.927 35.363 45.8052 35.8765 45.8052C36.39 45.8052 36.7928 45.9354 37.0935 46.1975C37.3995 46.4562 37.5507 46.8034 37.5507 47.2375V49.461H36.8438V47.2375C36.8438 46.6649 36.5219 46.3794 35.8765 46.3794C35.2312 46.3794 34.9023 46.6632 34.9023 47.2375V49.461H34.1954V47.2441L34.1936 47.2458Z" fill="#004282"/>
<path d="M40.948 49.2386V48.9866C40.6069 49.2987 40.2235 49.4556 39.7997 49.4556C39.3337 49.4556 38.9485 49.3054 38.6443 49.0016C38.3084 48.6577 38.1414 48.207 38.1414 47.6494C38.1414 47.0919 38.3102 46.6645 38.6443 46.2856C38.931 45.9617 39.3178 45.7998 39.7997 45.7998C40.2815 45.7998 40.6702 45.9701 41.0096 46.3073V45.905H41.6532V49.025C41.6532 49.7361 41.4897 50.2252 41.1661 50.494C40.8232 50.7811 40.3466 50.933 39.7364 50.948C39.3214 50.958 38.9415 50.928 38.5968 50.8579V50.312C38.9151 50.3888 39.2827 50.4239 39.6959 50.4239C40.1092 50.4239 40.424 50.327 40.6315 50.1284C40.8408 49.9314 40.9463 49.6359 40.9463 49.237L40.948 49.2386ZM39.965 48.8881C40.322 48.8881 40.6491 48.7044 40.948 48.3355V46.8665C40.6543 46.5293 40.3273 46.3574 39.965 46.3574C39.6256 46.3574 39.3565 46.4859 39.156 46.7413C38.9573 46.9984 38.8589 47.3039 38.8589 47.6544C38.8589 48.005 38.9556 48.2955 39.1525 48.5325C39.3495 48.7679 39.6203 48.8864 39.9667 48.8864L39.965 48.8881Z" fill="#004282"/>
<path d="M42.3744 46.6572H45.269V47.2539H42.3744V46.6572Z" fill="#004282"/>
<path d="M46.7301 44.4582V46.8003L49.0339 44.4582H49.8744L47.4371 46.9622L50.0239 49.4629H49.1992L46.7301 47.1342V49.4629H46.0232V44.4565H46.7301V44.4582Z" fill="#004282"/>
<path d="M53.9967 47.6944C53.9967 48.2436 53.805 48.691 53.4146 49.0449C53.026 49.3971 52.5547 49.5741 52.0007 49.5741C51.4468 49.5741 51.0001 49.3988 50.6009 49.0466C50.2052 48.696 50.0048 48.2453 50.0048 47.6927C50.0048 47.1402 50.2 46.6795 50.5904 46.3272C50.979 45.9733 51.4503 45.7964 52.0007 45.7964C52.5512 45.7964 53.0277 45.9783 53.4146 46.3356C53.805 46.6928 53.9967 47.1469 53.9967 47.6927V47.6944ZM50.7029 47.6944C50.7029 48.085 50.8243 48.4072 51.0669 48.6476C51.3114 48.8913 51.6226 49.0132 51.999 49.0132C52.3753 49.0132 52.6936 48.8897 52.9345 48.6476C53.1737 48.4072 53.295 48.085 53.295 47.6944C53.295 47.3038 53.1737 46.9733 52.9345 46.7279C52.6936 46.4825 52.3823 46.359 51.999 46.359C51.6156 46.359 51.3114 46.4825 51.0669 46.7279C50.8225 46.9749 50.7029 47.2954 50.7029 47.6944Z" fill="#004282"/>
<path d="M58.3385 47.6944C58.3385 48.2436 58.1451 48.691 57.7565 49.0449C57.3678 49.3971 56.8965 49.5741 56.3408 49.5741C55.7851 49.5741 55.3402 49.3988 54.941 49.0466C54.5436 48.696 54.3448 48.2453 54.3448 47.6927C54.3448 47.1402 54.54 46.6795 54.9322 46.3272C55.3209 45.9733 55.7904 45.7964 56.3426 45.7964C56.8948 45.7964 57.3696 45.9783 57.7582 46.3356C58.1469 46.6928 58.3403 47.1469 58.3403 47.6927L58.3385 47.6944ZM55.043 47.6944C55.043 48.085 55.1661 48.4072 55.4105 48.6476C55.6532 48.8913 55.9645 49.0132 56.3426 49.0132C56.7207 49.0132 57.0372 48.8897 57.2764 48.6476C57.5191 48.4072 57.6369 48.085 57.6369 47.6944C57.6369 47.3038 57.5173 46.9733 57.2764 46.7279C57.0372 46.4825 56.7242 46.359 56.3426 46.359C55.961 46.359 55.655 46.4825 55.4105 46.7279C55.1679 46.9749 55.043 47.2954 55.043 47.6944Z" fill="#004282"/>
<path d="M61.5271 49.4629H60.8202V44.4565H64.0278V45.0224H61.5271V46.6283H63.7289V47.1876H61.5271V49.4629Z" fill="#004282"/>
<path d="M68.1639 47.6944C68.1639 48.2436 67.9705 48.691 67.5818 49.0449C67.1949 49.3971 66.7219 49.5741 66.1662 49.5741C65.6105 49.5741 65.1656 49.3988 64.7664 49.0466C64.3689 48.696 64.1685 48.2453 64.1685 47.6927C64.1685 47.1402 64.3637 46.6795 64.7541 46.3272C65.1427 45.9733 65.614 45.7964 66.1644 45.7964C66.7149 45.7964 67.1932 45.9783 67.5801 46.3356C67.967 46.6928 68.1622 47.1469 68.1622 47.6927L68.1639 47.6944ZM64.8701 47.6944C64.8701 48.085 64.9915 48.4072 65.2377 48.6476C65.4803 48.8913 65.7916 49.0132 66.1679 49.0132C66.5443 49.0132 66.8626 48.8897 67.1017 48.6476C67.3427 48.4072 67.464 48.085 67.464 47.6944C67.464 47.3038 67.3427 46.9733 67.1017 46.7279C66.8626 46.4825 66.5513 46.359 66.1679 46.359C65.7846 46.359 65.4803 46.4825 65.2377 46.7279C64.9915 46.9749 64.8701 47.2954 64.8701 47.6944Z" fill="#004282"/>
<path d="M68.7651 48.1367V45.9048H69.472V48.2018C69.472 48.7543 69.7956 49.0298 70.4463 49.0298C71.0969 49.0298 71.4117 48.7543 71.4117 48.2018V45.9048H72.1186V48.1434C72.1186 48.6258 71.9639 48.9897 71.6561 49.2334C71.3466 49.4772 70.9386 49.5973 70.4287 49.5973C69.9187 49.5973 69.5037 49.4855 69.2082 49.2568C68.911 49.0281 68.7633 48.6542 68.7633 48.1384L68.7651 48.1367Z" fill="#004282"/>
<path d="M72.8064 47.2458C72.8064 46.7751 72.9594 46.4162 73.2636 46.1724C73.5661 45.927 73.9758 45.8052 74.4893 45.8052C75.0028 45.8052 75.4038 45.9354 75.7063 46.1975C76.0123 46.4562 76.1635 46.8034 76.1635 47.2375V49.461H75.4565V47.2375C75.4565 46.6649 75.133 46.3794 74.4893 46.3794C73.8457 46.3794 73.5151 46.6632 73.5151 47.2375V49.461H72.8064V47.2441V47.2458Z" fill="#004282"/>
<path d="M78.4143 49.5615C77.9325 49.5615 77.535 49.3946 77.2238 49.064C76.9125 48.7335 76.756 48.2761 76.756 47.6885C76.756 47.1009 76.916 46.6335 77.2343 46.2996C77.5544 45.9691 77.9483 45.7988 78.4143 45.7988C78.8399 45.7988 79.2232 45.9441 79.5697 46.2329V44.3599H80.2784V49.463H79.633V49.0674C79.2971 49.3962 78.8909 49.5615 78.4161 49.5615H78.4143ZM78.5708 46.3681C78.2103 46.3681 77.9342 46.4899 77.7461 46.7353C77.5561 46.9824 77.4629 47.2996 77.4629 47.6868C77.4629 48.0741 77.5579 48.3813 77.7461 48.6217C77.9289 48.8621 78.198 48.9889 78.555 48.9923H78.5708H78.5462H78.555C78.9472 48.9923 79.2866 48.8086 79.5697 48.4397V46.8806C79.2443 46.5367 78.9155 46.3664 78.5796 46.3664H78.5726L78.5708 46.3681Z" fill="#004282"/>
<path d="M83.4859 49.0454C83.0621 49.3876 82.6137 49.5596 82.1424 49.5596C81.745 49.5596 81.4337 49.4477 81.2103 49.224C80.987 49.0004 80.8762 48.7232 80.8762 48.3961C80.8762 48.0689 81.0151 47.7684 81.293 47.5447C81.5497 47.3394 81.8874 47.2325 82.3077 47.2242C82.721 47.2142 83.0938 47.2609 83.4244 47.3661V47.2092C83.4244 46.6733 83.085 46.3895 82.4097 46.3595C82.021 46.3461 81.6676 46.3762 81.3493 46.4496V45.9054C81.6992 45.842 82.0773 45.8086 82.4818 45.8086C82.9689 45.8086 83.3628 45.9288 83.6671 46.1658C83.9713 46.4162 84.1278 46.7785 84.1313 47.2542V49.4628H83.4877V49.0454H83.4859ZM83.4244 47.8802C83.1993 47.8251 83.0076 47.7867 82.8493 47.765C82.6946 47.7417 82.5363 47.7367 82.378 47.745C82.1529 47.755 81.9736 47.8068 81.8452 47.8953C81.6764 48.0088 81.5902 48.1724 81.5849 48.3877C81.5849 48.6014 81.6482 48.7633 81.7731 48.8685C81.8997 48.977 82.0562 49.0254 82.2444 49.0137C82.6963 48.9937 83.0885 48.8251 83.4244 48.5079V47.8786V47.8802Z" fill="#004282"/>
<path d="M85.9006 48.4262C85.9006 48.6482 85.9533 48.8001 86.0606 48.8802C86.182 48.9704 86.3226 49.0138 86.4915 49.0138H87.0489V49.5596H86.3895C85.9868 49.5596 85.6896 49.4695 85.4996 49.2909C85.308 49.1056 85.2095 48.8251 85.2095 48.4479V46.433H84.4691V45.9038H85.2095V44.9406L85.9006 44.7319V45.9038H86.8678V46.433H85.9006V48.4245V48.4262Z" fill="#004282"/>
<path d="M87.4149 45.061V44.3599H88.1716V45.061H87.4149ZM87.4396 49.463V45.904H88.147V49.463H87.4396Z" fill="#004282"/>
<path d="M92.7379 47.6944C92.7379 48.2436 92.5427 48.691 92.1558 49.0449C91.7672 49.3971 91.2976 49.5741 90.7402 49.5741C90.1827 49.5741 89.7395 49.3988 89.3421 49.0466C88.9447 48.696 88.7424 48.2453 88.7424 47.6927C88.7424 47.1402 88.9394 46.6795 89.3298 46.3272C89.7202 45.9733 90.1915 45.7964 90.7402 45.7964C91.2888 45.7964 91.7672 45.9783 92.1558 46.3356C92.5409 46.6928 92.7379 47.1469 92.7379 47.6927V47.6944ZM89.4441 47.6944C89.4441 48.085 89.5654 48.4072 89.8099 48.6476C90.0543 48.8913 90.3638 49.0132 90.7402 49.0132C91.1165 49.0132 91.4348 48.8897 91.6775 48.6476C91.9184 48.4072 92.038 48.085 92.038 47.6944C92.038 47.3038 91.9184 46.9733 91.6775 46.7279C91.4348 46.4825 91.1253 46.359 90.7402 46.359C90.355 46.359 90.0543 46.4825 89.8099 46.7279C89.5654 46.9749 89.4441 47.2954 89.4441 47.6944Z" fill="#004282"/>
<path d="M93.3395 47.2458C93.3395 46.7751 93.4907 46.4162 93.7949 46.1724C94.1009 45.927 94.5089 45.8052 95.0207 45.8052C95.5324 45.8052 95.9351 45.9354 96.2411 46.1975C96.5436 46.4562 96.6966 46.8034 96.6966 47.2375V49.461H95.9879V47.2375C95.9879 46.6649 95.6661 46.3794 95.0207 46.3794C94.3753 46.3794 94.0482 46.6632 94.0482 47.2375V49.461H93.3395V47.2441V47.2458Z" fill="#004282"/>
</svg>
