<svg width="12" height="111" viewBox="0 0 12 111" fill="none" xmlns="http://www.w3.org/2000/svg">
<path d="M1 105L6 110L11 105" stroke="#EEEEEE"/>
<path d="M10.12 92.98C10.12 93.628 10.012 94.248 9.796 94.84C9.572 95.432 9.232 95.98 8.776 96.484L7.72 95.596C8.072 95.188 8.344 94.776 8.536 94.36C8.72 93.944 8.812 93.472 8.812 92.944C8.812 92.488 8.716 92.128 8.524 91.864C8.332 91.592 8.076 91.456 7.756 91.456L7.732 91.456C7.58 91.456 7.448 91.484 7.336 91.54C7.216 91.588 7.104 91.684 7 91.828C6.896 91.964 6.8 92.156 6.712 92.404C6.624 92.644 6.536 92.96 6.448 93.352C6.344 93.8 6.228 94.2 6.1 94.552C5.964 94.896 5.804 95.188 5.62 95.428C5.428 95.66 5.196 95.84 4.924 95.968C4.652 96.088 4.324 96.148 3.94 96.148L3.916 96.148C3.556 96.148 3.228 96.076 2.932 95.932C2.628 95.788 2.372 95.592 2.164 95.344C1.948 95.088 1.78 94.784 1.66 94.432C1.54 94.08 1.48 93.696 1.48 93.28C1.48 92.664 1.572 92.112 1.756 91.624C1.932 91.128 2.192 90.664 2.536 90.232L3.652 91.024C3.372 91.408 3.16 91.788 3.016 92.164C2.864 92.54 2.788 92.92 2.788 93.304C2.788 93.736 2.884 94.072 3.076 94.312C3.268 94.552 3.504 94.672 3.784 94.672L3.808 94.672C3.968 94.672 4.112 94.644 4.24 94.588C4.36 94.532 4.472 94.432 4.576 94.288C4.672 94.136 4.764 93.932 4.852 93.676C4.94 93.412 5.032 93.08 5.128 92.68C5.24 92.24 5.364 91.852 5.5 91.516C5.636 91.172 5.804 90.888 6.004 90.664C6.196 90.44 6.424 90.272 6.688 90.16C6.944 90.04 7.244 89.98 7.588 89.98L7.612 89.98C8.004 89.98 8.356 90.056 8.668 90.208C8.98 90.352 9.244 90.556 9.46 90.82C9.676 91.084 9.84 91.4 9.952 91.768C10.064 92.136 10.12 92.54 10.12 92.98ZM10.144 84.3442C10.144 84.9602 10.032 85.5282 9.808 86.0482C9.584 86.5682 9.28 87.0202 8.896 87.4042C8.504 87.7802 8.044 88.0762 7.516 88.2922C6.988 88.5082 6.424 88.6162 5.824 88.6162L5.8 88.6162C5.2 88.6162 4.64 88.5122 4.12 88.3042C3.592 88.0882 3.132 87.7882 2.74 87.4042C2.34 87.0202 2.028 86.5642 1.804 86.0362C1.572 85.5082 1.456 84.9242 1.456 84.2842C1.456 83.9002 1.488 83.5522 1.552 83.2402C1.616 82.9202 1.708 82.6282 1.828 82.3642C1.94 82.1002 2.076 81.8562 2.236 81.6322C2.396 81.4082 2.572 81.1962 2.764 80.9962L3.856 81.9442C3.544 82.2802 3.292 82.6362 3.1 83.0122C2.908 83.3882 2.812 83.8162 2.812 84.2962C2.812 84.6962 2.892 85.0682 3.052 85.4122C3.204 85.7482 3.416 86.0402 3.688 86.2882C3.952 86.5362 4.264 86.7282 4.624 86.8642C4.984 87.0002 5.368 87.0682 5.776 87.0682L5.8 87.0682C6.208 87.0682 6.596 87.0002 6.964 86.8642C7.324 86.7282 7.64 86.5362 7.912 86.2882C8.184 86.0402 8.4 85.7482 8.56 85.4122C8.712 85.0682 8.788 84.6962 8.788 84.2962C8.788 83.7842 8.692 83.3442 8.5 82.9762C8.3 82.6082 8.032 82.2442 7.696 81.8842L8.656 80.9362C8.888 81.1522 9.096 81.3802 9.28 81.6202C9.456 81.8522 9.612 82.1042 9.748 82.3762C9.876 82.6482 9.972 82.9482 10.036 83.2762C10.108 83.5962 10.144 83.9522 10.144 84.3442ZM5.764 75.7488C5.764 75.2208 5.64 74.8008 5.392 74.4888C5.136 74.1768 4.792 74.0208 4.36 74.0208L4.336 74.0208C3.88 74.0208 3.536 74.1728 3.304 74.4768C3.064 74.7808 2.944 75.2088 2.944 75.7608L2.944 77.9088L5.764 77.9088L5.764 75.7488ZM1.6 79.3848L1.6 75.6408C1.6 75.1128 1.676 74.6448 1.828 74.2368C1.972 73.8288 2.176 73.4888 2.44 73.2168C2.672 72.9928 2.94 72.8208 3.244 72.7008C3.548 72.5808 3.884 72.5208 4.252 72.5208L4.276 72.5208C4.62 72.5208 4.932 72.5728 5.212 72.6768C5.484 72.7728 5.728 72.9088 5.944 73.0848C6.152 73.2608 6.332 73.4728 6.484 73.7208C6.628 73.9608 6.74 74.2288 6.82 74.5248L10 72.2568L10 73.9968L7.072 76.0608L7.072 76.0848L7.072 77.9088L10 77.9088L10 79.3848L1.6 79.3848ZM8.788 66.681C8.788 66.265 8.712 65.885 8.56 65.541C8.4 65.189 8.188 64.889 7.924 64.641C7.652 64.393 7.336 64.201 6.976 64.065C6.616 63.921 6.232 63.849 5.824 63.849L5.8 63.849C5.392 63.849 5.008 63.921 4.648 64.065C4.28 64.201 3.964 64.397 3.7 64.653C3.428 64.901 3.212 65.201 3.052 65.553C2.892 65.905 2.812 66.289 2.812 66.705C2.812 67.121 2.892 67.505 3.052 67.857C3.204 68.201 3.416 68.497 3.688 68.745C3.952 68.993 4.264 69.189 4.624 69.333C4.984 69.469 5.368 69.537 5.776 69.537L5.8 69.537C6.208 69.537 6.596 69.469 6.964 69.333C7.324 69.189 7.64 68.993 7.912 68.745C8.176 68.489 8.388 68.185 8.548 67.833C8.708 67.481 8.788 67.097 8.788 66.681ZM10.144 66.705C10.144 67.353 10.032 67.945 9.808 68.481C9.576 69.017 9.264 69.477 8.872 69.861C8.48 70.245 8.024 70.545 7.504 70.761C6.976 70.977 6.416 71.085 5.824 71.085L5.8 71.085C5.208 71.085 4.652 70.977 4.132 70.761C3.604 70.545 3.144 70.241 2.752 69.849C2.352 69.457 2.036 68.993 1.804 68.457C1.572 67.921 1.456 67.329 1.456 66.681C1.456 66.033 1.572 65.441 1.804 64.905C2.028 64.369 2.336 63.909 2.728 63.525C3.12 63.141 3.58 62.841 4.108 62.625C4.628 62.409 5.184 62.301 5.776 62.301L5.8 62.301C6.392 62.301 6.952 62.409 7.48 62.625C8 62.841 8.46 63.145 8.86 63.537C9.252 63.929 9.564 64.393 9.796 64.929C10.028 65.465 10.144 66.057 10.144 66.705ZM1.6 60.5177L1.6 59.0417L8.656 59.0417L8.656 54.6257L10 54.6257L10 60.5177L1.6 60.5177ZM1.6 53.088L1.6 51.612L8.656 51.612L8.656 47.196L10 47.196L10 53.088L1.6 53.088ZM8.656 38.9286C8.656 38.4886 8.588 38.0886 8.452 37.7286C8.308 37.3686 8.112 37.0646 7.864 36.8166C7.608 36.5606 7.308 36.3646 6.964 36.2286C6.612 36.0846 6.232 36.0126 5.824 36.0126L5.8 36.0126C5.392 36.0126 5.012 36.0846 4.66 36.2286C4.308 36.3646 4.008 36.5606 3.76 36.8166C3.504 37.0646 3.304 37.3686 3.16 37.7286C3.016 38.0886 2.944 38.4886 2.944 38.9286L2.944 40.5846L8.656 40.5846L8.656 38.9286ZM1.6 42.0606L1.6 38.9286C1.6 38.2726 1.708 37.6726 1.924 37.1286C2.132 36.5766 2.424 36.1046 2.8 35.7126C3.176 35.3126 3.62 35.0046 4.132 34.7886C4.636 34.5726 5.184 34.4646 5.776 34.4646L5.8 34.4646C6.392 34.4646 6.944 34.5726 7.456 34.7886C7.968 35.0046 8.412 35.3126 8.788 35.7126C9.164 36.1046 9.46 36.5766 9.676 37.1286C9.892 37.6726 10 38.2726 10 38.9286L10 42.0606L1.6 42.0606ZM8.788 28.6419C8.788 28.2259 8.712 27.8459 8.56 27.5019C8.4 27.1499 8.188 26.8499 7.924 26.6019C7.652 26.3539 7.336 26.1619 6.976 26.0259C6.616 25.8819 6.232 25.8099 5.824 25.8099L5.8 25.8099C5.392 25.8099 5.008 25.8819 4.648 26.0259C4.28 26.1619 3.964 26.3579 3.7 26.6139C3.428 26.8619 3.212 27.1619 3.052 27.5139C2.892 27.8659 2.812 28.2499 2.812 28.6659C2.812 29.0819 2.892 29.4659 3.052 29.8179C3.204 30.1619 3.416 30.4579 3.688 30.7059C3.952 30.9539 4.264 31.1499 4.624 31.2939C4.984 31.4299 5.368 31.4979 5.776 31.4979L5.8 31.4979C6.208 31.4979 6.596 31.4299 6.964 31.2939C7.324 31.1499 7.64 30.9539 7.912 30.7059C8.176 30.4499 8.388 30.1459 8.548 29.7939C8.708 29.4419 8.788 29.0579 8.788 28.6419ZM10.144 28.6659C10.144 29.3139 10.032 29.9059 9.808 30.4419C9.576 30.9779 9.264 31.4379 8.872 31.8219C8.48 32.2059 8.024 32.5059 7.504 32.7219C6.976 32.9379 6.416 33.0459 5.824 33.0459L5.8 33.0459C5.208 33.0459 4.652 32.9379 4.132 32.7219C3.604 32.5059 3.144 32.2019 2.752 31.8099C2.352 31.4179 2.036 30.9539 1.804 30.4179C1.572 29.8819 1.456 29.2899 1.456 28.6419C1.456 27.9939 1.572 27.4019 1.804 26.8659C2.028 26.3299 2.336 25.8699 2.728 25.4859C3.12 25.1019 3.58 24.8019 4.108 24.5859C4.628 24.3699 5.184 24.2619 5.776 24.2619L5.8 24.2619C6.392 24.2619 6.952 24.3699 7.48 24.5859C8 24.8019 8.46 25.1059 8.86 25.4979C9.252 25.8899 9.564 26.3539 9.796 26.8899C10.028 27.4259 10.144 28.0179 10.144 28.6659ZM1.6 23.1266L1.6 21.5306L7.828 19.5266L1.576 17.4626L1.576 16.2146L7.828 14.1506L1.6 12.1466L1.6 10.5986L10.06 13.5266L10.06 14.7986L4.024 16.8626L10.06 18.9266L10.06 20.1986L1.6 23.1266ZM1.6 9.08406L1.6 7.71606L7.408 3.21606L1.6 3.21606L1.6 1.76406L10 1.76406L10 3.00006L4.024 7.63206L10 7.63206L10 9.08406L1.6 9.08406Z" fill="white"/>
</svg>
